<?xml version="1.0" standalone="no"?>
<!DOCTYPE svg PUBLIC "-//W3C//DTD SVG 20010904//EN"
 "http://www.w3.org/TR/2001/REC-SVG-20010904/DTD/svg10.dtd">
<svg version="1.0" xmlns="http://www.w3.org/2000/svg"
 width="362.000000pt" height="362.000000pt" viewBox="0 0 362.000000 362.000000"
 preserveAspectRatio="xMidYMid meet">
<metadata>
Created by potrace 1.14, written by Peter Selinger 2001-2017
</metadata>
<g transform="translate(0.000000,362.000000) scale(0.100000,-0.100000)"
fill="#000000" stroke="none">
<path d="M1590 3609 c-330 -42 -658 -183 -910 -389 -303 -248 -520 -587 -615
-960 -172 -677 57 -1390 590 -1838 824 -693 2065 -511 2657 389 398 605 398
1393 0 1998 -292 444 -761 735 -1292 800 -97 13 -335 12 -430 0z m1019 -865
c59 -35 56 22 59 -990 2 -732 0 -939 -10 -970 -8 -24 -26 -47 -47 -61 l-34
-23 -777 0 -777 0 -34 23 c-21 14 -39 37 -47 61 -19 60 -13 1892 7 1922 37 56
-1 53 849 54 704 0 787 -2 811 -16z"/>
<path d="M1100 1730 l0 -860 700 0 700 0 0 860 0 860 -700 0 -700 0 0 -860z
m1183 562 l27 -28 -120 -119 -120 -120 -65 65 -65 64 27 28 27 28 36 -35 36
-35 89 90 c49 50 92 90 95 90 4 0 18 -13 33 -28z m-543 -147 l0 -55 -235 0
-235 0 0 55 0 55 235 0 235 0 0 -55z m448 -332 l-123 -123 -65 65 -64 64 29
31 29 30 38 -37 38 -37 92 92 92 92 28 -27 28 -27 -122 -123z m-448 2 l0 -55
-235 0 -235 0 0 55 0 55 235 0 235 0 0 -55z m435 -235 l39 40 30 -30 30 -30
-39 -40 -39 -40 39 -40 39 -40 -29 -30 -29 -30 -41 40 -41 40 -39 -40 -39 -40
-30 30 -30 30 39 40 39 40 -39 40 -39 40 29 30 29 30 41 -40 41 -40 39 40z
m-435 -95 l0 -55 -235 0 -235 0 0 55 0 55 235 0 235 0 0 -55z m435 -235 l39
40 30 -30 30 -30 -39 -40 -39 -40 37 -38 c20 -21 37 -42 37 -48 0 -6 -11 -21
-25 -34 l-25 -24 -43 42 -43 42 -41 -42 -42 -42 -26 24 c-14 13 -25 28 -25 34
0 6 17 27 37 48 l37 38 -39 40 -39 40 29 30 29 30 41 -40 41 -40 39 40z m-435
-105 l0 -55 -235 0 -235 0 0 55 0 55 235 0 235 0 0 -55z"/>
</g>
</svg>
